<svg id="Layer_1" data-name="Layer 1" xmlns="http://www.w3.org/2000/svg" viewBox="0 0 500 500">
    <defs>
        <style>.cls-1{fill:#49005e;}</style>
    </defs>
    <path class="cls-1" d="M164.9,173.5c1-11.1,2-23.5,9.9-32.1,4-4.2,10-7.6,16-6.6s12.6,7,11.7,14.1l2.7-.2c-3.2-8.1,5.3-14.6,11.6-18s15.5-6.7,23.7-7.3c14.9-.9,31.6,8.4,31.6,24.9a1.5,1.5,0,0,0,2.6.9c8.8-13.2,25.2-19.9,40.7-17.4,8.5,1.4,16.7,5.6,22,12.5s6.9,19.6-.9,26.9c-1.1,1,.1,2.5,1.2,2.5,12-.1,19.1,12.2,21.1,22.6a51.5,51.5,0,0,1-4.6,32.3c-10.7,21.3-35.8,31.4-58.5,25.1a1.5,1.5,0,0,0-1.7,1.2c-4.5,20.6-25.1,34.4-45.6,34.5-22.6,0-42.5-15.1-54.1-33.6a1.5,1.5,0,0,0-2.4-.1c-13.4,17.2-33.2,37.7-56.4,23.9-20.6-12.2-19.1-42.1,1.4-53.5,1.5-.9.4-2.9-1-2.9-17.4.1-24.6-20.4-17.5-34,8-15.4,28.1-23.3,44.2-16.8,1.8.7,3.2-2.1,1.3-2.8-18.5-7.4-41.9,2.2-49.5,20.9-6.3,15.7,3.6,35.9,21.8,35.8-.4-.9-.7-1.8-1.1-2.8-21.3,11.9-23.9,42.9-3.7,57.2a34.5,34.5,0,0,0,33.3,3.9c12.5-5.3,21.5-16.4,29.5-26.9h-2.4c12.3,19.8,34,35.6,58.2,34.8,21.4-.8,42.2-15.6,46.8-36.9l-1.7,1.1c25.7,7.1,53.8-6,63.7-31,4.4-11.1,5.4-24.1,1.5-35.6s-11.5-19.4-22.8-19.3l1.3,2.5c16.6-15.5-.4-38-17.5-43.2s-38.6,1.6-48.9,17.2l2.7.9c-.1-19-19.7-29.3-36.6-27.5-12.1,1.3-43,11.4-36,29.1a1.5,1.5,0,0,0,2.8-.3c1.7-13.5-13.8-20.8-24.8-15.3-14.7,7.3-16.4,24.9-17,39.4-.1.8,1.4.9,1.4,0Z" />
    <path class="cls-1" d="M311.1,277.1a8.6,8.6,0,0,0-5.4,11.3c1.9,4.8,8.3,6.4,12.7,4.3,12.1-5.8,2.1-24.9-9.8-20.4a1.3,1.3,0,0,0,.5,2.4c4.1-.2,8.2-.1,10.9,3.7s1.9,8.7-1.4,11.3a7.8,7.8,0,0,1-9.7-.4c-3.6-3.4-1.8-9.5,2.6-11.2.6-.2.3-1.2-.4-1Z" />
    <path class="cls-1" d="M329.3,298.4c-5.3-.9-7.1,6.2-3.9,9.4s9.6,2.2,12-2.3.5-8.9-4-10.4c-2.9-.9-10.2,0-9.8,4.4a.9.9,0,0,0,1.5.7c.9-.5,1.3-1.5,2.2-2.1a7.2,7.2,0,0,1,3.3-1.1c2.6-.1,5.3,1.5,5.5,4.4a6.2,6.2,0,0,1-5.3,6.2c-4.8.3-7.1-6.5-1.6-7.6.8-.2,1-1.5.1-1.6Z" />
    <path class="cls-1" d="M336.9,318.7a4.6,4.6,0,0,0-3.2,4.2c-.1,2,1.9,3.1,3.7,3.1a3.8,3.8,0,0,0,3.8-2.8,4.4,4.4,0,0,0-1.4-4.8c-.7-.4-1.6.7-1.1,1.3s1.5,1.6,1.1,2.9a2.4,2.4,0,0,1-2.3,1.6c-.9,0-2.1-.4-2-1.5a3.6,3.6,0,0,1,2.1-2.7c.8-.4,0-1.4-.7-1.3Z" />
</svg>